<?xml version="1.0" encoding="UTF-8"?>
<svg xmlns="http://www.w3.org/2000/svg" version="1.1" xmlns:xlink="http://www.w3.org/1999/xlink" viewBox="0 0 100 100">
  <!-- Generator: Adobe Illustrator 29.3.1, SVG Export Plug-In . SVG Version: 2.1.0 Build 151)  -->
  <defs>
    <style>
      .st0 {
        fill: url(#_Безымянный_градиент_325);
      }

      .st0, .st1, .st2, .st3 {
        stroke: #110072;
        stroke-miterlimit: 10;
      }

      .st4 {
        fill: url(#_Безымянный_градиент_54);
      }

      .st1 {
        fill: #c6ffa5;
        stroke-width: .1px;
      }

      .st2 {
        fill: url(#_Безымянный_градиент_247);
      }

      .st5 {
        fill: #ffaf2e;
      }

      .st6 {
        display: none;
      }

      .st3 {
        fill: url(#_Безымянный_градиент_356);
      }
    </style>
    <linearGradient id="_Безымянный_градиент_54" data-name="Безымянный градиент 54" x1="25.6" y1="34" x2="29.5" y2="41.9" gradientUnits="userSpaceOnUse">
      <stop offset="0" stop-color="#ff55f1"/>
      <stop offset="1" stop-color="#0a4"/>
    </linearGradient>
    <linearGradient id="_Безымянный_градиент_247" data-name="Безымянный градиент 247" x1="24" y1="25.1" x2="79.3" y2="86.5" gradientUnits="userSpaceOnUse">
      <stop offset="0" stop-color="#3fe1ff"/>
      <stop offset=".8" stop-color="#e93400" stop-opacity=".8"/>
      <stop offset="1" stop-color="#000"/>
    </linearGradient>
    <linearGradient id="_Безымянный_градиент_356" data-name="Безымянный градиент 356" x1="22.4" y1="15.5" x2="83.3" y2="46.5" gradientUnits="userSpaceOnUse">
      <stop offset="0" stop-color="#3fe1ff"/>
      <stop offset=".8" stop-color="#ff5615"/>
      <stop offset="1" stop-color="#000"/>
    </linearGradient>
    <linearGradient id="_Безымянный_градиент_325" data-name="Безымянный градиент 325" x1="33.9" y1="39.4" x2="68.1" y2="77.4" gradientUnits="userSpaceOnUse">
      <stop offset="0" stop-color="#3fe1ff"/>
      <stop offset=".8" stop-color="#42e6ff" stop-opacity=".8"/>
      <stop offset="1" stop-color="#000"/>
    </linearGradient>
  </defs>
  <g id="_Слой_1" data-name="Слой_1" class="st6">
    <image width="100" height="100" xlink:href="icons8-home-page-100.png"/>
  </g>
  <g id="_Слой_2" data-name="Слой_2">
    <path class="st4" d="M19.4,37.1c10.2,1.1,15.6,1.7,16.2,1.8-.6,0-6-.6-16.2-1.7h0Z"/>
    <path class="st2" d="M88.7,35.6c-5.8,1.4-7.9,1.8-8.2,1.8,0,0,0,0,0,0h0s0,0,0,0c0,0,0,1.1,0,2.2v45.7c0,.4-.3.7-.6.7H20.1c-.4,0-.7-.3-.7-.7v-48h0s0,0,0,0c-2.3-.2-5-.5-7.8-.8,6.5-4.8,13.7-9.8,21.4-14.6,5.5-3.5,10.9-6.7,16.1-9.6,6.3,3.5,12.8,7.2,19.4,11.1.1,0,.3.2.4.2v-6.6h6.6v10.5c2.3,1.5,4.7,2.9,7,4.4,2.1,1.3,4.1,2.5,6.2,3.8Z"/>
    <rect class="st1" x="37.7" y="50" width="24.9" height="35.1"/>
    <ellipse class="st5" cx="58.5" cy="70" rx="1.6" ry="2.4"/>
  </g>
  <g id="_Слой_3" data-name="Слой_3">
    <g id="_Слой_5" data-name="Слой_5">
      <path d="M25,39.4l-6.4-.6c5.4-3.5,11.3-7.1,17.6-10.7,4.5-2.5,9-4.9,13.3-7,5.2,2.6,10.5,5.3,15.9,8.2.1,0,.2.1.3.2v-4.8h5.4v7.7c1.9,1.1,3.8,2.1,5.8,3.2,1.7.9,3.4,1.9,5.1,2.8-2.2.5-4.4.9-6.7,1.3-18.6,3.2-35.8,2.2-50.2-.2Z"/>
    </g>
    <path class="st3" d="M19.7,36.9l-7.8-.8c6.5-4.8,13.7-9.8,21.4-14.6,5.5-3.5,10.9-6.7,16.1-9.6,6.3,3.5,12.8,7.2,19.4,11.1.1,0,.3.2.4.2v-6.6h6.6v10.5c2.3,1.5,4.7,2.9,7,4.4,2.1,1.3,4.1,2.5,6.2,3.8-2.7.7-5.4,1.3-8.2,1.8-22.6,4.4-43.5,3.1-61.1-.3Z"/>
  </g>
  <g id="_Слой_4" data-name="Слой_4" class="st6">
    <path class="st0" d="M19.3,60.5l-7.8-.8c6.5-4.8,13.7-9.8,21.4-14.6,5.5-3.5,10.9-6.7,16.1-9.6,6.3,3.5,12.8,7.2,19.4,11.1.1,0,.3.2.4.2v-6.6h6.6v10.5c2.3,1.5,4.7,2.9,7,4.4,2.1,1.3,4.1,2.5,6.2,3.8-2.7.7-5.4,1.3-8.2,1.8-22.6,4.4-43.5,3.1-61.1-.3Z"/>
  </g>
</svg>