<?xml version="1.0" encoding="UTF-8"?>
<svg xmlns="http://www.w3.org/2000/svg" version="1.1" viewBox="0 0 288 288">
  <!-- Generator: Adobe Illustrator 29.3.1, SVG Export Plug-In . SVG Version: 2.1.0 Build 151)  -->
  <defs>
    <style>
      .st0, .st1, .st2 {
        fill: #fff;
      }

      .st1, .st3 {
        display: none;
      }

      .st2 {
        stroke: #fff;
        stroke-miterlimit: 10;
        stroke-width: .2px;
      }

      .st4 {
        fill: #0aff33;
      }
    </style>
  </defs>
  <g id="_Слой_1" data-name="Слой_1" class="st3">
    <g>
      <path class="st0" d="M115.8,252H36V36h215.9v215.9h-89.7l1.9-50-48.7-1.2c-4.9,16.4-4.4,34.7.4,51.2ZM131.6,40.2c-27.9,3.7-57.7,21.9-65.4,50.1,42.5,44.8,40.8,5.8,61.9-.5,17.7-5.3,45.9,4.1,35.8,25.8-5.7,12.4-36.5,15.7-47.1,42.6-15.2,38.5,15.8,30.8,43.4,30.1,7.2-6.4,6.9-14.7,13.6-22.9,7.4-8.9,16.1-10.3,23.4-16.5,55.7-47.7-3.6-116.9-65.6-108.7Z"/>
      <path d="M162.3,252h-46.5c-4.8-16.5-5.2-34.8-.4-51.2l48.7,1.2-1.9,50Z"/>
      <path d="M131.6,40.2c62-8.2,121.3,61,65.6,108.7-7.3,6.2-16,7.6-23.4,16.5-6.8,8.2-6.4,16.5-13.6,22.9-27.6.7-58.6,8.4-43.4-30.1,10.6-26.9,41.4-30.2,47.1-42.6,10-21.8-18.2-31.1-35.8-25.8-21.1,6.3-19.4,45.3-61.9.5,7.8-28.2,37.5-46.5,65.4-50.1Z"/>
    </g>
    <rect x="114.6" y="203.8" width="46.2" height="46.2" rx="8.2" ry="8.2"/>
  </g>
  <g id="_Слой_3" data-name="Слой_3">
    <rect class="st4" x="114.6" y="204.2" width="46.2" height="46.2" rx="8.2" ry="8.2"/>
    <line class="st1" x1="137.7" y1="204.2" x2="137.7" y2="250.3"/>
    <line class="st2" x1="130.2" y1="204.2" x2="130.2" y2="250.3"/>
    <line class="st2" x1="145.2" y1="204.2" x2="145.2" y2="250.3"/>
    <line class="st2" x1="160.8" y1="219.8" x2="114.6" y2="219.8"/>
    <line class="st2" x1="160.8" y1="234.8" x2="114.6" y2="234.8"/>
  </g>
  <g id="_Слой_2" data-name="Слой_2">
    <path d="M216.5,88.4c.6,1.7,1.4,4.4,2,7.8,1.3,7.4.6,13.2.4,15.1-.3,2.4-1.2,8.3-4.5,15.3-3.1,6.5-6.7,10.7-9.4,13.7-2.3,2.6-8.6,9.6-17.4,13.9-1.3.7-3.6,1.7-6.5,3.7-1.5,1-4.2,3.2-7,6.5-2.6,3-3.8,5.3-5.3,7.8-4.7,7.9-7,11.8-9.8,13.9-3.6,2.7-11.1,2.3-26,1.4-6.6-.4-10.1-.9-12.9-3.6-3.1-2.8-3.8-6.6-4.3-9-2.3-12.1,5.3-22.8,7.6-26,4.9-6.8,10.8-11.1,13.5-12.9,3.2-2.2,4.3-2.6,16.2-9.8,6.8-4.1,8.4-5.2,10-7.6,3.8-5.9,2.9-12.4,2.7-13.5-.5-3.8-2.1-6.2-2.5-6.8-.5-.8-2.1-2.9-6.3-5.3-1.3-.8-7.7-4.3-17-4.5-2.6,0-6.5.1-11,1.4-2.1.6-4.6,1.3-7.2,2.9-3.2,2-3.9,3.6-7.8,8.2-5,5.9-7.6,8.8-11.2,10.2-.8.3-4,1.4-10.2.2-11.1-2.2-26.4-10.8-26.4-21.3,0-3,1.6-5.8,4.7-11.3,1.1-2,3.7-6.4,8.4-11.5,1.4-1.5,7.4-8,17-13.9,7.1-4.3,22.2-13.6,44-14,25.3-.5,43.1,11.3,48.7,15.2,0,0,13.1,9,21.1,21.3,1.5,2.2,4.2,6.5,6.3,12.7Z"/>
  </g>
</svg>