<?xml version="1.0" encoding="UTF-8"?>
<svg xmlns="http://www.w3.org/2000/svg" version="1.1" xmlns:xlink="http://www.w3.org/1999/xlink" viewBox="0 0 18 18">
  <!-- Generator: Adobe Illustrator 29.3.1, SVG Export Plug-In . SVG Version: 2.1.0 Build 151)  -->
  <defs>
    <style>
      .st0, .st1 {
        fill: #38ff3a;
      }

      .st0, .st2 {
        stroke: #000;
        stroke-miterlimit: 10;
        stroke-width: .1px;
      }

      .st3, .st2 {
        fill: #ff593b;
      }

      .st4 {
        display: none;
      }
    </style>
  </defs>
  <g id="_Слой_2" data-name="Слой_2" class="st4">
    <g>
      <path class="st1" d="M9,.6C5.8.6,2.9,2.5,1.6,5.2c0,0,0,0,0,0,.3,0,.6.2.7.5C3.6,3.2,6.1,1.5,9,1.5c4.1,0,7.5,3.3,7.5,7.5s-3.3,7.5-7.5,7.5-6.5-2.4-7.2-5.7c-.1.3-.3.6-.5.6s-.2,0-.3-.2c.9,3.6,4.2,6.2,8.1,6.2s8.4-3.7,8.4-8.4S13.6.6,9,.6Z"/>
      <polygon class="st1" points="1.8 7.1 1.8 7.1 1.8 7.1 1.8 7.1"/>
    </g>
  </g>
  <g id="_Слой_2__x28_копия_x29_" data-name="Слой_2__x28_копия_x29_" class="st4">
    <g>
      <path class="st1" d="M6,16.8c2.8-1.7,4.2-4.7,4-7.8,0,0,0,0,0,0-.3.2-.6.1-.9,0,.2,2.7-1,5.5-3.5,7-3.5,2.2-8.1,1-10.3-2.5S-5.8,5.4-2.3,3.3s6.8-1.3,9.2,1.1c0-.4,0-.7.1-.8s.2,0,.4,0C4.7,1,.6.5-2.8,2.5s-5.2,7.6-2.8,11.5,7.6,5.2,11.5,2.8Z"/>
      <polygon class="st1" points="8.7 7.5 8.7 7.5 8.7 7.5 8.7 7.5"/>
    </g>
    <polygon class="st3" points="11.7 11.1 9.5 9.9 7.6 11.7 8.1 9.1 5.8 7.9 8.3 7.6 8.8 5 9.9 7.4 12.5 7 10.6 8.8 11.7 11.1"/>
  </g>
  <g id="_Слой_5" data-name="Слой_5">
    <path d="M7.8,1.5c-3.1.6-5.5,2.8-6.3,5.7,0,0,0,0,0,0,.3,0,.6,0,.8.3.7-2.5,2.8-4.6,5.6-5.1,3.9-.7,7.7,1.9,8.4,5.8s-1.9,7.7-5.8,8.4c-3.4.6-6.6-1.2-7.9-4.2,0,.4-.2.6-.4.6s-.2,0-.3-.1c1.5,3.3,5.1,5.2,8.8,4.5,4.4-.8,7.3-5.1,6.5-9.5S12.2.7,7.8,1.5Z"/>
    <polygon class="st0" points="2.3 8.6 2.3 8.6 2.3 8.6 2.3 8.6"/>
    <polygon points="1.1 6 2 7.1 3.3 6.5 2.6 7.7 3.4 8.7 2.1 8.4 1.4 9.6 1.3 8.2 0 7.9 1.2 7.4 1.1 6"/>
  </g>
  <g id="_Слой_4" data-name="Слой_4">
    <g>
      <path class="st0" d="M8,1.2C4.9,1.7,2.6,4,1.8,6.7c0,0,0,0,0,0,.3,0,.6,0,.8.3.7-2.5,2.8-4.5,5.5-5,3.9-.7,7.6,1.8,8.3,5.7s-1.8,7.6-5.7,8.3-6.5-1.2-7.8-4.1c0,.4-.2.6-.4.6s-.2,0-.3-.1c1.5,3.2,5,5.1,8.6,4.4s7.2-5,6.4-9.3S12.3.4,8,1.2Z"/>
      <polygon class="st0" points="2.3 8.5 2.3 8.5 2.3 8.5 2.3 8.5"/>
      <polygon class="st2" points="1.5 5.6 2.3 6.6 3.6 6.1 2.9 7.2 3.7 8.2 2.4 7.9 1.8 9.1 1.6 7.7 .4 7.4 1.6 6.9 1.5 5.6"/>
    </g>
  </g>
  <g id="_Слой_4__x28_копия_x29_" data-name="Слой_4__x28_копия_x29_" class="st4">
    <g class="st4">
      <path d="M9.2,2c-3.7.1-6.6,2-7.6,5.2,0,0,0,0,0,0,.3,0,.6,0,.8.3.8-2.6,3-4.3,6-4.7s6.8,1.6,7.5,5.3-1.6,6.6-5.6,7.4c-3.4.6-6.2-.6-7.6-3.5,0,0-.1.6-.3.6s-.4,0-.5-.2c1.5,3.3,4.9,5.1,8.6,4.4,4.7-.9,7.5-5,6-9.7S12.8,1.9,9.2,2Z"/>
      <polygon points="1.3 6 2.2 7.1 3.4 6.5 2.7 7.7 3.6 8.7 2.3 8.4 1.6 9.6 1.5 8.2 .1 7.9 1.4 7.4 1.3 6"/>
      <polygon class="st0" points="2.5 8.6 2.5 8.6 2.5 8.6 2.5 8.6"/>
    </g>
    <image width="512" height="456" transform="translate(-.2 1) scale(0)" xlink:href="refresh-1.png"/>
  </g>
  <g id="_Слой_1" data-name="Слой_1" class="st4">
    <image width="64" height="64" transform="scale(.3)" xlink:href="refresh.png"/>
  </g>
</svg>